<svg width="243" height="48" viewBox="0 0 243 48" fill="none" xmlns="http://www.w3.org/2000/svg">
<path fill-rule="evenodd" clip-rule="evenodd" d="M108.746 0.75H145.942L144.5 11L141.916 10.9883L143.049 3.25H110.863L109.5 11L107.037 10.959L108.746 0.75Z" fill="#487254"/>
<path fill-rule="evenodd" clip-rule="evenodd" d="M105.61 38.4043L104.49 44.7501H137.446L138.5 38.3691H140.94L139.596 47.2501H101.51L103.111 38.4042L105.61 38.4043Z" fill="#487254"/>
<path d="M8.29905 34.9286H0V14H8.29905C11.453 14 15.271 15.1823 15.271 19.401C15.3035 20.4298 14.9934 21.4396 14.391 22.2668C13.7885 23.094 12.9289 23.69 11.9516 23.9584C13.1359 24.0942 14.2299 24.6678 15.0256 25.57C15.8212 26.4723 16.2631 27.6405 16.2671 28.8524C16.2671 33.4098 12.2836 34.9286 8.29905 34.9286ZM7.30399 18.0515H4.81416V22.2702H7.46947C9.29519 22.2702 10.4579 21.4267 10.4579 19.9079C10.6234 18.5574 9.46178 18.0515 7.30071 18.0515H7.30399ZM7.63276 25.9842H4.81088V30.8792H7.79823C9.45848 30.8792 11.2842 30.3734 11.2842 28.3476C11.2875 26.6583 9.79383 25.9842 7.63605 25.9842H7.63276Z" fill="#2B2A26"/>
<path d="M28.3846 34.9286L23.9025 26.6583H22.2433V34.9286H17.2637V14H25.2307C29.2142 14 33.1977 15.5199 33.1977 20.4138C33.2254 21.7263 32.8133 23.0093 32.029 24.0522C31.2448 25.095 30.1351 25.8357 28.8821 26.1524L34.3615 35.0979H28.3857L28.3846 34.9286ZM24.8986 18.0515H22.2433V22.9455H24.5666C26.2268 22.9455 28.218 22.6112 28.218 20.4138C28.218 18.3892 26.3923 18.0515 24.8986 18.0515Z" fill="#2B2A26"/>
<path d="M51.6218 35.0968L49.9615 31.0464H41.9945L40.5009 35.0968H35.0215L43.6526 14H48.4657L57.0968 35.0968H51.6218ZM45.978 19.7386L43.3227 26.9959H48.4733L45.978 19.7386Z" fill="#2B2A26"/>
<path d="M71.0429 34.9286L62.7428 21.0891H62.5773L62.7428 34.9286H57.9297V14H63.5734L71.8725 27.6712H72.038L71.8725 14H76.6856V35.0979H71.0429V34.9286Z" fill="#2B2A26"/>
<path d="M85.8146 34.9286H78.1797V14H85.6546C91.4628 14 97.4397 16.5317 97.4397 24.4643C97.4342 31.7216 91.6239 34.9286 85.8146 34.9286ZM85.4859 18.2198H82.996V30.545H85.3204C88.8053 30.545 92.1258 29.0262 92.1258 24.3049C92.288 19.7363 88.9685 18.2198 85.4826 18.2198H85.4859Z" fill="#2B2A26"/>
<path d="M109.553 19.4597C109.124 18.8876 108.572 18.4229 107.938 18.1012C107.305 17.7794 106.608 17.6091 105.901 17.6032C104.574 17.6032 103.08 18.1102 103.08 19.7973C103.08 21.1478 104.242 21.6537 106.233 22.3289C109.055 23.1736 112.707 24.523 112.707 28.7428C112.707 33.6378 108.889 35.8319 104.739 35.8319C101.853 35.8639 99.0637 34.7774 96.9375 32.7932L100.258 29.418C100.8 30.0971 101.482 30.6459 102.257 31.0252C103.032 31.4045 103.879 31.6049 104.739 31.6121C106.233 31.6121 107.561 30.9368 107.561 29.2487C107.561 27.5605 105.901 27.0546 103.245 26.2111C100.59 25.3676 97.9336 24.0171 97.9336 20.1349C97.9336 15.4092 102.084 13.5528 105.901 13.5528C108.394 13.5435 110.808 14.4415 112.707 16.0845L109.553 19.4597Z" fill="#2B2A26"/>
<path d="M132.46 33.8008C130.118 35.0861 127.649 35.7305 124.989 35.6617C118.681 35.6617 114.365 31.1054 114.365 24.6915C114.365 18.2777 118.681 13.7214 124.989 13.7214C126.333 13.6762 127.673 13.9069 128.928 14.3997C130.183 14.8925 131.327 15.6372 132.293 16.5895L130.964 18.1094C129.371 16.5091 127.228 15.6012 124.989 15.5778C119.677 15.5778 116.358 19.6282 116.358 24.6915C116.358 29.9231 119.677 33.8053 124.989 33.8053C126.937 33.8908 128.876 33.485 130.632 32.6241V25.7H125.655V24.0118H132.46V33.8008Z" fill="#487254"/>
<path d="M142.749 14.3955H144.742L153.373 35.1558H151.215L148.891 29.5844H138.102L135.777 35.1558H133.785L142.749 14.3955ZM143.579 16.5895L138.931 27.8985H148.229L143.579 16.5895Z" fill="#487254"/>
<path d="M157.854 16.0837H150.883V14.3955H166.651V16.0837H159.679V35.1558H157.854V16.0837Z" fill="#487254"/>
<path d="M168.312 14.3955H180.762V16.0837H170.138V23.5104H180.098V25.1974H170.138V33.2994H181.259V34.9864H168.312V14.3955Z" fill="#487254"/>
<path d="M182.092 14.3955H184.084L189.235 32.7924L194.385 14.3955H196.875L202.026 32.7924L207.176 14.3955H209.168L203.193 35.1558H200.868L195.718 16.7589L190.406 35.1558H188.082L182.092 14.3955Z" fill="#487254"/>
<path d="M216.94 14.3955H218.932L227.563 35.1558H225.239L223.081 29.5844H212.292L209.969 35.1558H207.977L216.94 14.3955ZM217.77 16.5895L212.956 27.8985H222.251L217.77 16.5895Z" fill="#487254"/>
<path d="M233.544 26.2099L226.074 14.3984H228.397L234.534 24.1875L240.841 14.3984H242.999L235.529 26.2099V35.1554H233.538L233.544 26.2099Z" fill="#487254"/>
</svg>
