<?xml version="1.0" encoding="UTF-8"?>
<svg id="Réteg_1" data-name="Réteg 1" xmlns="http://www.w3.org/2000/svg" viewBox="0 0 1561 323">
  <defs>
    <style>
      .cls-1 {
        fill: #fff;
      }

      .cls-2 {
        fill: #286df8;
      }
    </style>
  </defs>
  <g>
    <path d="m424.3,188.7h61.86c1.59,16.18,8.88,29.5,35.85,29.5,18.72,0,29.19-9.2,29.19-22.52s-8.57-17.77-35.85-21.89c-64.08-7.61-85.66-26.65-85.66-72.33,0-40.92,33.63-70.75,87.88-70.75s85.34,22.84,89.46,70.75h-60.28c-2.22-16.18-11.42-24.43-29.19-24.43s-26.33,7.93-26.33,19.35c0,12.69,6.98,18.4,35.21,22.21,57.42,6.34,86.93,21.26,86.93,70.43,0,41.56-32.99,75.5-91.37,75.5-63.45,0-95.81-26.65-97.71-75.82Z"/>
    <path d="m687.92,243.9l-66.3-149.1h61.55l34.26,88.51,31.72-88.51h54.25l-88.83,221.44h-54.25l27.6-72.33Z"/>
    <path d="m822.75,94.8h56.79v26.65c8.88-17.13,26.97-31.09,54.57-31.09,32.04,0,54.25,19.99,54.25,62.5v107.86h-56.79v-96.44c0-18.72-7.3-27.92-23.79-27.92s-28.24,10.15-28.24,31.41v92.95h-56.79V94.8Z"/>
    <path d="m1011.82,179.82v-2.54c0-55.2,39.66-86.92,88.51-86.92,40.61,0,78.04,17.77,81.21,68.21h-53.3c-2.54-15.55-10.15-24.11-26.65-24.11-19.99,0-31.72,14.28-31.72,42.19v2.54c0,28.87,11.1,43.78,32.68,43.78,15.86,0,26.97-9.52,28.87-27.6h51.08c-1.59,41.88-29.82,69.16-83.44,69.16-49.49,0-87.24-28.87-87.24-84.7Z"/>
    <path d="m1196.78,179.82v-2.54c0-53.3,39.66-86.92,89.78-86.92,45.37,0,84.39,26.01,84.39,85.66v14.91h-116.75c1.59,21.89,14.28,34.58,34.58,34.58,18.72,0,26.65-8.57,28.87-19.67h53.3c-5.08,37.44-33.95,58.69-84.07,58.69s-90.1-30.46-90.1-84.7Zm118.97-20.94c-.95-19.99-10.79-31.09-29.19-31.09-17.13,0-28.87,11.1-31.72,31.09h60.91Z"/>
    <path d="m1386.49,179.82v-2.54c0-53.3,39.66-86.92,89.78-86.92,45.37,0,84.39,26.01,84.39,85.66v14.91h-116.75c1.59,21.89,14.28,34.58,34.58,34.58,18.72,0,26.65-8.57,28.87-19.67h53.3c-5.08,37.44-33.95,58.69-84.07,58.69s-90.1-30.46-90.1-84.7Zm118.97-20.94c-.95-19.99-10.79-31.09-29.19-31.09-17.13,0-28.87,11.1-31.72,31.09h60.91Z"/>
  </g>
  <rect class="cls-1" x="67" y="38" width="211" height="240"/>
  <path class="cls-2" d="m349.68,258.51L312.99,0H36.74L.04,258.51c-.03.19-.04.39-.04.58.15,28.98,22.47,63.9,51.41,63.9h246.9c28.94,0,51.26-34.92,51.41-63.9,0-.2-.01-.39-.04-.58ZM85.11,132.97c5.51-21.86,17.52-39.54,36.41-51.8,31.16-20.22,63.5-20.97,95.73-2.82,9.01,5.07,16.55,12.76,25.58,19.89,5.81-4.41,20.53-15.89,20.53-15.89,0,0,1.14,44.74,1.8,67.16-21.65-6.16-42-11.95-64.13-18.24,7.86-6.29,14.24-11.4,21.02-16.83-9.29-11.67-21.2-19.15-35.57-22.26-35.22-7.63-67,11.44-77.15,45.93-3.05,10.37-11.79,14.27-19.83,8.9-5.27-3.52-5.72-8.78-4.39-14.06Zm179.57,55.21c-8.01,34.03-38.77,61.32-75.09,65.79-30.09,3.71-55.75-5.89-76.89-27.59-1.41-1.44-2.71-2.99-4.53-5.02-7,5.31-21.49,16.29-21.49,16.29,0,0-1.35-44.26-2.01-66.66,21.66,6.16,42.01,11.95,64.14,18.24-7.89,6.3-14.28,11.41-21.13,16.87,12.22,14.57,27.63,23.05,46.47,23.7,33.21,1.15,56.75-16.27,66.45-48.05,2.44-7.98,9.09-12.24,15.98-10.22,6.94,2.03,10.02,8.39,8.08,16.65Z"/>
</svg>